<svg version="1.1" id="Layer_1" xmlns="http://www.w3.org/2000/svg" xmlns:xlink="http://www.w3.org/1999/xlink" x="0px" y="0px"
	 width="100%" viewBox="0 0 336 320" enable-background="new 0 0 336 320" xml:space="preserve">
<path fill="#000000" opacity="1.000000" stroke="none" 
	d="
M167.000000,321.000000 
	C111.333344,321.000000 56.166687,321.000000 1.000022,321.000000 
	C1.000015,214.333359 1.000015,107.666725 1.000007,1.000065 
	C112.999947,1.000043 224.999893,1.000043 336.999878,1.000022 
	C336.999939,107.666595 336.999939,214.333191 336.999969,320.999878 
	C280.500000,321.000000 224.000000,321.000000 167.000000,321.000000 
M239.444763,262.005768 
	C240.162857,260.889374 240.920441,259.796204 241.593216,258.653107 
	C257.427124,231.750198 272.961273,204.663757 289.276855,178.056412 
	C293.506287,171.159103 293.202393,166.039597 289.330872,159.476959 
	C278.959076,141.895584 269.110779,124.005295 259.063110,106.232872 
	C251.788956,93.366241 244.524216,80.494278 237.265503,67.618942 
	C235.785660,64.994019 233.921616,63.359650 230.565445,63.366215 
	C192.573868,63.440514 154.582031,63.378956 116.590370,63.432682 
	C111.587776,63.439758 110.813972,64.794830 113.158691,69.050430 
	C121.256966,83.748550 129.400482,98.422073 137.597305,113.065483 
	C146.684891,129.300247 155.667542,145.599014 165.101410,161.631271 
	C167.661438,165.981857 168.312393,169.348328 165.631561,173.850662 
	C151.359543,197.820099 137.304947,221.919250 123.222626,246.001297 
	C118.384987,254.274109 113.684761,262.627289 109.031303,270.752502 
	C111.041656,273.461761 113.404320,272.580444 115.429932,272.583618 
	C150.755554,272.638641 186.086227,272.304535 221.403534,272.849243 
	C230.131149,272.983856 236.117783,271.158081 239.444763,262.005768 
M99.620850,236.913147 
	C99.621140,224.914413 99.621368,212.915680 99.621735,200.916946 
	C99.622108,188.918167 99.623550,176.919388 99.622818,164.920609 
	C99.622086,152.921829 99.683594,140.922592 99.599052,128.924393 
	C99.516037,117.143341 99.980583,105.329895 99.278305,93.048653 
	C96.488518,94.046356 95.961823,95.305817 95.316307,96.441170 
	C82.753365,118.537239 70.331322,140.715424 57.525265,162.669647 
	C54.812469,167.320374 55.618572,170.717651 58.115269,174.911362 
	C69.417961,193.896469 80.437439,213.049942 91.670868,232.076706 
	C93.625603,235.387573 94.975235,239.235199 98.280853,241.594055 
	C99.911644,240.449493 99.495499,239.012497 99.620850,236.913147 
z"/>
</svg>